<svg id="Layer_1" data-name="Layer 1" xmlns="http://www.w3.org/2000/svg" viewBox="0 0 536.47 63.77"><defs><style>.cls-1{font-size:30px;font-family:Lauren-Normal, Lauren;}.cls-1,.cls-2{fill:#fff;}</style></defs><text class="cls-1" transform="translate(76.27 43)">HSE Online Vaccination Appoinment</text><g id="Vaccine-Syring-Coronavirus-Protection-Covid19"><circle class="cls-2" cx="35.31" cy="40.99" r="1.14"/><circle class="cls-2" cx="22.78" cy="27.33" r="2.28"/><path class="cls-2" d="M58.12,29.61s-.22.07-.42.37A3.57,3.57,0,0,1,56,31.32c-.42.15-.86.29-1.3.41a16.67,16.67,0,0,1-6,.37c-1.71-.17-4.66-.77-5.19-2.7l2.18-.62a3.1,3.1,0,0,0,1.76.8,18.6,18.6,0,0,0-1.26-4L44.1,27.71a2.27,2.27,0,0,1-3.21,0v0l-2.42,2.42a2.26,2.26,0,0,1-3.2,0h0L30.41,35l-1.62-1.62,4.85-4.83a2.27,2.27,0,0,1,0-3.22h0l2.41-2.42a2.28,2.28,0,0,1,0-3.22h0l2.51-2.51a18.43,18.43,0,0,0-5.51-2c.28,1.13.63,1.67.8,1.75l-.61,2.19c-1.94-.53-2.53-3.49-2.7-5.21a16.55,16.55,0,0,1,.36-5.95c.13-.45.26-.88.41-1.29a3.53,3.53,0,0,1,1.35-1.7c.29-.19.37-.36.37-.39-.19-.42-1.39-1.13-3.42-1.13s-3.22.71-3.4,1.1c0,.06.07.23.36.42a3.54,3.54,0,0,1,1.34,1.69c.16.42.29.85.42,1.3a16.62,16.62,0,0,1,.36,6c-.17,1.71-.76,4.67-2.7,5.2l-.61-2.19c.17-.08.53-.62.81-1.76a17.86,17.86,0,0,0-6.62,2.7,2.18,2.18,0,0,0,1.17.31l1.11,2c-1.75,1-4.25-.68-5.6-1.77a16.77,16.77,0,0,1-3.95-4.48,12.31,12.31,0,0,1-.61-1.2,3.43,3.43,0,0,1-.25-2.14.9.9,0,0,0,0-.54c-.44-.16-1.78.17-3.22,1.61S6.44,14.4,6.57,14.8c0,0,.21.11.57,0a3.54,3.54,0,0,1,2.13.24c.4.19.81.4,1.21.63a16.82,16.82,0,0,1,4.49,4C16,21,17.71,23.51,16.72,25.26l-2-1.12A2.29,2.29,0,0,0,14.42,23a18.17,18.17,0,0,0-2.7,6.62c1.14-.27,1.69-.64,1.77-.82l2.18.63c-.53,1.93-3.48,2.53-5.2,2.7a16.62,16.62,0,0,1-6-.37c-.44-.12-.88-.26-1.3-.41A3.47,3.47,0,0,1,1.53,30c-.2-.3-.37-.38-.39-.38C.72,29.8,0,31,0,33s.72,3.22,1.1,3.41c.06,0,.23-.07.43-.37a3.47,3.47,0,0,1,1.68-1.34c.42-.15.86-.29,1.3-.41a16.66,16.66,0,0,1,6-.37c1.71.17,4.66.77,5.19,2.7l-2.18.62c-.08-.17-.63-.54-1.77-.81a18.17,18.17,0,0,0,2.7,6.62,2.32,2.32,0,0,0,.32-1.18l2-1.11c1,1.75-.68,4.26-1.76,5.6a17.08,17.08,0,0,1-4.48,3.95c-.4.23-.81.44-1.21.63a3.5,3.5,0,0,1-2.14.24.9.9,0,0,0-.54,0c-.15.43.18,1.79,1.61,3.22S11,56.2,11.39,56.06c0,0,.11-.2,0-.57a3.47,3.47,0,0,1,.23-2.13c.2-.4.4-.81.63-1.2a16.56,16.56,0,0,1,4-4.49c1.33-1.07,3.83-2.75,5.58-1.76l-1.12,2a2.15,2.15,0,0,0-1.16.31,17.92,17.92,0,0,0,6.19,2.61,1.33,1.33,0,0,0-.38-.53L26,48.1c1.94.52,2.53,3.49,2.7,5.21a16.55,16.55,0,0,1-.36,5.95c-.13.45-.26.88-.41,1.3a3.62,3.62,0,0,1-1.35,1.69c-.29.19-.37.36-.37.38.19.43,1.39,1.14,3.41,1.14s3.23-.71,3.41-1.1c0-.06-.07-.23-.36-.42a3.53,3.53,0,0,1-1.35-1.7c-.15-.41-.28-.84-.41-1.29a16.66,16.66,0,0,1-.36-6c.17-1.7.76-4.67,2.7-5.19l.61,2.19a1.46,1.46,0,0,0-.39.53,18,18,0,0,0,6.2-2.61,2.18,2.18,0,0,0-1.17-.31l-1.11-2c1.75-1,4.25.69,5.6,1.77a16.77,16.77,0,0,1,4,4.48c.23.39.43.8.62,1.2a3.48,3.48,0,0,1,.24,2.13,1,1,0,0,0,0,.55c.44.16,1.79-.17,3.23-1.61s1.76-2.79,1.63-3.19c0-.05-.21-.11-.57,0A3.39,3.39,0,0,1,50,51c-.4-.18-.81-.39-1.21-.62a16.82,16.82,0,0,1-4.49-4c-1.07-1.33-2.74-3.84-1.75-5.59l2,1.12a2.31,2.31,0,0,0,.32,1.17,18.17,18.17,0,0,0,2.7-6.62c-1.14.27-1.69.64-1.77.82l-2.18-.63c.53-1.93,3.48-2.53,5.2-2.7a16.62,16.62,0,0,1,6,.37c.44.12.88.26,1.3.41a3.52,3.52,0,0,1,1.68,1.34c.2.3.37.38.39.38.42-.2,1.14-1.39,1.14-3.42s-.72-3.22-1.11-3.41ZM22.78,42.13a3.42,3.42,0,1,1,3.42-3.41A3.42,3.42,0,0,1,22.78,42.13Zm0-10.25a4.56,4.56,0,1,1,4.56-4.55A4.56,4.56,0,0,1,22.78,31.88ZM35.31,44.41A3.42,3.42,0,1,1,38.73,41,3.42,3.42,0,0,1,35.31,44.41Z"/><circle class="cls-2" cx="22.78" cy="38.72" r="1.14"/><path class="cls-2" d="M45.71,13.21,44.1,14.83l4.83,4.83,4.83-4.83L48.93,10l-1.6,1.61,1.6,1.61-1.6,1.61Z"/><path class="cls-2" d="M35.27,26.91l2.41-2.43L39.3,26.1l-2.41,2.42Z"/><path class="cls-2" d="M39.27,19.66l-1.61,1.62,4.83,4.83,4.84-4.84L42.5,16.44l-1.62,1.61,1.61,1.61-1.61,1.62Z"/><path class="cls-2" d="M50.55,5.64a1.12,1.12,0,0,0-.81.33,1.16,1.16,0,0,0,0,1.62L56.19,14a1.15,1.15,0,0,0,1.6,0,1.12,1.12,0,0,0,0-1.6L51.35,6A1.14,1.14,0,0,0,50.55,5.64Z"/><path class="cls-2" d="M63.43,6.78a1.14,1.14,0,0,0,0-1.62L58.6.33A1.16,1.16,0,0,0,57,.33,1.16,1.16,0,0,0,57,2l4.85,4.83A1.15,1.15,0,0,0,63.43,6.78Z"/><path class="cls-2" d="M55.38,6.78,57,5.17,58.6,6.78,57,8.39Z"/></g></svg>